<?xml version="1.0" standalone="no"?>
<!DOCTYPE svg PUBLIC "-//W3C//DTD SVG 20010904//EN"
 "http://www.w3.org/TR/2001/REC-SVG-20010904/DTD/svg10.dtd">
<svg version="1.0" xmlns="http://www.w3.org/2000/svg"
 width="192.000000pt" height="192.000000pt" viewBox="0 0 192.000000 192.000000"
 preserveAspectRatio="xMidYMid meet">
<metadata>
Created by potrace 1.14, written by Peter Selinger 2001-2017
</metadata>
<g transform="translate(0.000000,192.000000) scale(0.100000,-0.100000)"
fill="#000000" stroke="none">
<path d="M805 1798 c-264 -18 -503 -129 -597 -277 -38 -60 -37 -84 5 -99 48
-17 100 -92 172 -249 52 -113 66 -154 76 -226 7 -52 8 -91 3 -96 -5 -4 -40
-13 -78 -20 -82 -14 -170 -57 -225 -109 -70 -66 -68 -126 8 -216 57 -67 100
-99 160 -117 34 -10 46 -20 63 -53 41 -83 152 -172 183 -146 7 6 16 21 19 34
3 13 13 26 21 30 18 7 80 -22 142 -67 37 -26 47 -29 85 -23 49 8 218 111 295
180 31 28 62 46 87 50 54 10 183 62 230 93 21 13 35 20 32 14 -11 -18 7 -13
42 12 42 29 126 136 151 191 26 61 34 118 22 162 -6 22 -7 42 -2 47 13 13 100
11 116 -3 22 -19 26 6 5 33 -22 28 -96 57 -145 57 -20 0 -39 8 -54 24 l-22 23
30 13 c32 13 44 37 43 83 -1 42 -9 44 -41 13 -20 -19 -49 -32 -88 -40 -53 -11
-66 -11 -119 6 -32 11 -97 22 -144 26 l-85 7 -3 65 c-5 105 36 266 105 407 19
39 33 80 31 89 -5 26 -85 52 -208 69 -140 19 -196 21 -315 13z m370 -62 l50
-14 -65 -1 c-36 -1 -108 -12 -160 -26 -96 -26 -320 -128 -320 -146 0 -5 21 1
48 14 42 22 226 97 236 97 2 0 4 -93 5 -207 1 -115 6 -237 10 -273 l8 -65 -55
-50 c-68 -61 -104 -84 -159 -101 -37 -11 -42 -11 -48 4 -3 9 -1 18 4 20 6 2
11 8 11 14 0 6 -8 7 -17 4 -9 -4 -20 -1 -25 6 -12 19 -10 28 7 28 8 0 15 5 15
11 0 6 -6 9 -13 6 -19 -7 -41 8 -33 22 4 6 14 11 21 11 9 0 12 6 9 15 -3 8 -9
14 -12 13 -4 0 -15 0 -26 1 -15 1 -16 4 -6 16 7 8 16 12 21 9 5 -3 9 2 9 11 0
12 -6 14 -26 9 -22 -6 -25 -4 -22 12 2 11 11 18 21 18 20 -2 20 -7 -14 106
-13 41 -22 80 -21 86 1 6 -4 17 -12 23 -8 7 -12 19 -9 28 3 8 0 19 -8 23 -11
7 -8 14 11 36 l25 27 -25 -13 c-14 -7 -34 -21 -45 -31 -69 -62 -280 -79 -301
-24 -18 46 59 141 153 189 68 34 223 83 318 101 99 18 365 13 440 -9z m-18
-52 c-3 -3 -12 -4 -19 -1 -8 3 -5 6 6 6 11 1 17 -2 13 -5z m-37 -24 c0 -11 -7
-20 -15 -20 -15 0 -21 21 -8 33 12 13 23 7 23 -13z m-50 0 c0 -5 -7 -10 -15
-10 -8 0 -15 5 -15 10 0 6 7 10 15 10 8 0 15 -4 15 -10z m16 -31 c10 -17 -13
-36 -27 -22 -12 12 -4 33 11 33 5 0 12 -5 16 -11z m46 -31 c-15 -15 -26 -4
-18 18 5 13 9 15 18 6 9 -9 9 -15 0 -24z m-82 -18 c0 -11 -7 -20 -15 -20 -17
0 -18 2 -9 24 9 23 24 20 24 -4z m58 -13 c2 -12 -3 -17 -17 -17 -12 0 -21 6
-21 13 0 31 32 34 38 4z m-40 -40 c2 -10 -3 -17 -12 -17 -10 0 -16 9 -16 21 0
24 23 21 28 -4z m52 -1 c0 -15 -14 -35 -21 -30 -15 9 -10 34 6 34 8 0 15 -2
15 -4z m-32 -53 c-2 -10 -10 -18 -18 -18 -8 0 -16 8 -18 18 -2 12 3 17 18 17
15 0 20 -5 18 -17z m-40 -40 c-5 -25 -28 -28 -28 -4 0 12 6 21 16 21 9 0 14
-7 12 -17z m52 -15 c0 -17 -3 -19 -9 -10 -6 10 -11 5 -19 -18 -12 -33 -34 -37
-40 -7 -2 12 3 17 17 17 14 0 21 6 21 20 0 11 7 20 15 20 9 0 15 -9 15 -22z
m-490 -27 c0 -6 -4 -13 -10 -16 -5 -3 -10 1 -10 9 0 9 5 16 10 16 6 0 10 -4
10 -9z m417 -63 c-3 -7 -5 -2 -5 12 0 14 2 19 5 13 2 -7 2 -19 0 -25z m-407 8
c0 -17 -14 -29 -23 -20 -8 8 3 34 14 34 5 0 9 -6 9 -14z m-30 -41 c0 -8 -7
-15 -15 -15 -9 0 -12 6 -9 15 4 8 10 15 15 15 5 0 9 -7 9 -15z m455 -5 c0 -7
-6 -15 -12 -17 -8 -3 -13 4 -13 17 0 13 5 20 13 18 6 -3 12 -11 12 -18z m-405
-4 c0 -20 -19 -31 -32 -18 -6 6 -7 15 -4 21 10 16 36 13 36 -3z m-40 -46 c0
-23 -25 -27 -33 -6 -7 16 1 26 20 26 7 0 13 -9 13 -20z m446 -17 c-11 -11 -19
6 -11 24 8 17 8 17 12 0 3 -10 2 -21 -1 -24z m-390 16 c10 -17 -13 -36 -27
-22 -12 12 -4 33 11 33 5 0 12 -5 16 -11z m-36 -43 c0 -21 -21 -31 -30 -15 -5
7 -6 17 -4 21 9 14 34 9 34 -6z m15 -46 c3 -6 -1 -7 -9 -4 -18 7 -21 14 -7 14
6 0 13 -4 16 -10z m402 -12 c-3 -8 -6 -5 -6 6 -1 11 2 17 5 13 3 -3 4 -12 1
-19z m574 -42 c-6 -7 -25 -16 -42 -20 -17 -3 -48 -24 -70 -46 -32 -32 -45 -39
-65 -34 -18 5 -29 1 -38 -11 -10 -13 -15 -15 -21 -6 -17 28 90 101 151 101 16
1 43 7 59 15 39 17 40 17 26 1z m-425 -28 c-113 -40 -304 -169 -306 -208 0 -8
-15 -34 -33 -57 -17 -22 -57 -74 -88 -115 -71 -93 -157 -172 -215 -198 -130
-57 -281 -23 -350 79 -30 45 -31 88 -1 132 30 46 137 83 214 75 74 -8 83 -14
83 -50 0 -34 57 -128 88 -145 23 -12 67 -3 86 18 49 52 105 131 93 131 -2 0
-23 -18 -46 -40 -50 -48 -71 -42 -71 22 0 21 -5 70 -11 109 -11 62 -15 70 -38
76 -19 6 -4 9 54 14 72 6 91 13 207 73 71 37 128 62 128 56 0 -7 -24 -37 -53
-68 -47 -50 -104 -125 -132 -172 -5 -8 40 35 101 96 114 115 169 152 265 178
79 21 93 18 25 -6z m104 -78 c0 -5 -21 -20 -47 -32 -78 -37 -118 -145 -75
-198 13 -17 24 -21 40 -16 12 4 22 14 22 23 0 25 32 71 58 82 13 6 22 8 20 4
-2 -5 -10 -20 -17 -35 -11 -22 -12 -30 -1 -43 31 -38 131 5 230 100 72 69 97
85 132 85 18 -1 14 -5 -19 -22 -58 -28 -113 -85 -152 -158 -35 -66 -71 -92
-128 -92 -22 0 -39 7 -51 22 -17 21 -24 22 -74 16 -48 -6 -61 -12 -92 -47 -41
-47 -45 -70 -15 -98 l21 -20 -33 -20 c-19 -12 -42 -21 -51 -21 -9 0 -20 -4
-23 -10 -3 -5 -21 -10 -39 -10 -36 0 -86 -32 -86 -56 0 -14 22 -22 80 -26 l34
-3 -29 -19 c-18 -12 -53 -20 -93 -23 -58 -4 -64 -2 -69 16 -4 16 -14 21 -42
22 -52 2 -74 -2 -88 -13 -10 -8 -13 -6 -13 6 0 23 17 54 51 94 33 37 36 57 12
70 -15 9 -13 13 14 38 17 16 41 50 53 76 12 25 30 54 41 64 20 18 20 18 14 -9
-27 -107 79 -113 124 -7 12 28 24 64 26 81 5 43 38 83 87 106 70 34 173 82
176 82 1 1 2 -3 2 -9z m150 -79 c0 -6 -12 -35 -26 -65 -19 -41 -33 -57 -56
-65 -35 -12 -48 -7 -48 18 0 23 44 71 65 71 24 0 18 15 -7 18 -46 4 -108 -20
-138 -55 -17 -18 -30 -40 -30 -48 0 -8 -4 -15 -9 -15 -14 0 -18 45 -7 81 9 27
20 35 61 49 57 19 195 27 195 11z m-443 -106 c9 -25 -25 -101 -51 -115 -64
-34 -61 53 2 107 32 27 41 28 49 8z m297 -120 c14 -14 10 -23 -37 -88 -60 -84
-234 -262 -265 -271 -11 -4 -35 -20 -52 -36 -34 -32 -97 -47 -150 -35 -17 4
-57 20 -87 36 -30 16 -65 29 -77 29 -21 0 -23 4 -21 63 1 74 27 126 106 213
51 56 68 65 24 12 -26 -31 -33 -72 -14 -83 7 -5 6 -12 -4 -23 -27 -31 -47 -81
-47 -117 0 -19 2 -35 5 -35 2 0 15 11 29 25 19 19 32 23 62 21 21 -2 40 -10
43 -17 7 -23 23 -28 94 -28 l69 0 59 55 c32 30 64 54 71 54 6 0 9 3 5 6 -3 4
-36 -4 -72 -17 -52 -18 -68 -20 -78 -10 -20 20 27 49 76 45 34 -3 47 2 85 33
46 38 106 112 97 121 -3 3 -11 -2 -18 -12 -16 -21 -61 -18 -64 4 -2 8 14 27
34 43 41 31 102 37 127 12z m-799 -259 c36 -15 60 -49 51 -72 -12 -31 -48 -8
-89 59 -20 30 -12 33 38 13z"/>
</g>
</svg>
